# xmcd CD database file
#
# Track frame offsets:
#	150
#	15834
#	28527
#	40356
#	55806
#	68631
#	85968
#	95979
#	114636
#	131814
#	147201
#	159453
#	172224
#	184569
#	204903
#
# Disc length: 2905 seconds
#
# Revision: 0
# Processed by: cddbd v1.5.2PL0 Copyright (c) Steve Scherf et al.
# Submitted via: CDex 1.70beta2
#
DISCID=cc0b570f
DTITLE=Django Reinhardt - Nuages
DYEAR=2003
DGENRE=Jazz
TTITLE0=St. Louis Blues
TTITLE1=Are you in the mood
TTITLE2=Tears
TTITLE3=Chicago
TTITLE4=Swingin' with Django
TTITLE5=Djangology
TTITLE6=Belleville
TTITLE7=Uptown blues
TTITLE8=Blues riff
TTITLE9=Nuages
TTITLE10=Blues clair
TTITLE11=Minor swing
TTITLE12=Si tu savais
TTITLE13=Manoir de mes reves
TTITLE14=Confessin' (that I love you)
EXTD=YEAR: 2003
EXTT0=
EXTT1=
EXTT2=
EXTT3=
EXTT4=
EXTT5=
EXTT6=
EXTT7=
EXTT8=
EXTT9=
EXTT10=
EXTT11=
EXTT12=
EXTT13=
EXTT14=
PLAYORDER=
